<svg width="98" height="35" viewBox="0 0 98 35" fill="none" xmlns="http://www.w3.org/2000/svg">
<path d="M0.38 1H5.31V17.354C6.23933 16.4927 7.078 15.7107 7.826 15.008C8.574 14.3053 9.46933 13.478 10.512 12.526C11.7813 11.3473 12.9487 10.146 14.014 8.922C15.102 7.698 15.9633 6.542 16.598 5.454C17.2553 4.366 17.584 3.43667 17.584 2.666C17.584 2.054 17.4253 1.65733 17.108 1.476C16.8133 1.29467 16.5073 1.19267 16.19 1.17V1H24.622L8.846 14.77C9.09533 14.6793 9.34467 14.6227 9.594 14.6C9.84333 14.5547 10.0813 14.532 10.308 14.532C10.92 14.532 11.43 14.668 11.838 14.94C12.246 15.1893 12.654 15.5973 13.062 16.164C13.47 16.708 13.9573 17.422 14.524 18.306C15.5893 19.9153 16.5527 21.3887 17.414 22.726C18.298 24.0633 19.1367 25.3667 19.93 26.636C20.746 27.8827 21.5847 29.186 22.446 30.546C23.3073 31.8833 24.248 33.368 25.268 35H19.42C18.4 33.368 17.4593 31.8833 16.598 30.546C15.7593 29.186 14.932 27.8713 14.116 26.602C13.3227 25.3327 12.484 24.0293 11.6 22.692C10.7387 21.3547 9.764 19.8927 8.676 18.306C8.42667 17.9207 8.2 17.6147 7.996 17.388C7.792 17.1613 7.47467 17.048 7.044 17.048C6.72667 17.048 6.432 17.1273 6.16 17.286C5.888 17.422 5.60467 17.6147 5.31 17.864V35H0.38V1ZM34.049 35H26.637C27.3397 32.688 27.997 30.5347 28.609 28.54C29.221 26.5227 29.799 24.596 30.343 22.76C30.9097 20.924 31.465 19.088 32.009 17.252C32.5757 15.416 33.1537 13.5233 33.743 11.574C34.355 9.602 35.001 7.48267 35.681 5.216C35.9304 4.42266 36.2477 3.686 36.633 3.006C37.0184 2.30333 37.5057 1.73666 38.095 1.306C38.707 0.875333 39.421 0.66 40.237 0.66C41.0757 0.66 41.7897 0.875333 42.379 1.306C42.9684 1.73666 43.4557 2.30333 43.841 3.006C44.249 3.686 44.5664 4.42266 44.793 5.216C45.473 7.48267 46.1077 9.602 46.697 11.574C47.309 13.5233 47.887 15.416 48.431 17.252C48.9977 19.088 49.5644 20.924 50.131 22.76C50.6977 24.596 51.2757 26.5227 51.865 28.54C52.477 30.5347 53.1344 32.688 53.837 35H48.635C47.9324 32.6427 47.275 30.4667 46.663 28.472C46.0737 26.4547 45.507 24.5167 44.963 22.658H33.607C33.5617 24.5393 33.5504 26.3187 33.573 27.996C33.5957 29.6733 33.6524 31.1353 33.743 32.382C33.8337 33.606 33.9357 34.4787 34.049 35ZM33.641 22.148H44.793C44.2717 20.3573 43.739 18.5893 43.195 16.844C42.651 15.076 42.0844 13.24 41.495 11.336C40.9284 9.432 40.2937 7.392 39.591 5.216C39.4777 4.83066 39.319 4.52466 39.115 4.298C38.911 4.07133 38.6164 3.958 38.231 3.958C37.619 3.958 37.075 4.30933 36.599 5.012C36.123 5.71467 35.715 6.678 35.375 7.902C35.035 9.10333 34.7404 10.486 34.491 12.05C34.2644 13.5913 34.083 15.2347 33.947 16.98C33.811 18.7027 33.709 20.4253 33.641 22.148ZM66.829 35H56.221L61.525 6.712C61.6157 6.19067 61.7177 5.66933 61.831 5.148C61.9443 4.604 62.001 4.094 62.001 3.618C62.001 3.11933 61.8877 2.67733 61.661 2.292C61.4343 1.90667 61.0263 1.612 60.437 1.408C60.1877 1.36266 59.9157 1.31733 59.621 1.272C59.3263 1.22667 59.009 1.19267 58.669 1.17V1H66.013C66.8063 1 67.4637 1.29467 67.985 1.884C68.529 2.45066 68.8803 3.26666 69.039 4.332C69.311 6.304 69.5603 8.09467 69.787 9.704C70.0137 11.3133 70.229 12.8547 70.433 14.328C70.637 15.8013 70.841 17.2973 71.045 18.816C71.2717 20.3347 71.521 21.978 71.793 23.746C71.929 24.63 72.1103 25.5593 72.337 26.534C72.5863 27.5087 72.881 28.4267 73.221 29.288C73.5837 30.1267 73.9803 30.818 74.411 31.362C74.8417 31.8833 75.3177 32.144 75.839 32.144C76.519 32.144 76.9837 31.906 77.233 31.43C77.4824 30.9313 77.5957 30.2627 77.573 29.424C77.5503 28.5627 77.4483 27.5767 77.267 26.466C77.0857 25.3553 76.893 24.1767 76.689 22.93C76.553 22.1367 76.3717 21.1847 76.145 20.074C75.941 18.9633 75.7143 17.7733 75.465 16.504C75.2384 15.212 75.0343 13.9087 74.853 12.594C74.6717 11.2793 74.5583 10.01 74.513 8.786C74.4223 6.22466 74.921 4.23 76.009 2.802C77.097 1.374 78.6157 0.66 80.565 0.66C81.6983 0.66 82.5823 0.920666 83.217 1.442C83.8744 1.96333 84.3617 2.65466 84.679 3.516C84.9964 4.37733 85.2344 5.32933 85.393 6.372C85.5517 7.41466 85.7104 8.46867 85.869 9.534C86.2317 11.982 86.549 14.226 86.821 16.266C87.1157 18.306 87.3877 20.2893 87.637 22.216C87.909 24.1427 88.181 26.1373 88.453 28.2C88.725 30.24 89.031 32.5067 89.371 35H84.271C83.931 32.5067 83.6137 30.2287 83.319 28.166C83.047 26.1033 82.775 24.1087 82.503 22.182C82.231 20.2553 81.959 18.2833 81.687 16.266C81.415 14.226 81.109 11.9933 80.769 9.568C80.6784 8.82 80.5877 8.06067 80.497 7.29C80.4063 6.49667 80.2817 5.76 80.123 5.08C79.9643 4.4 79.7263 3.856 79.409 3.448C79.0917 3.04 78.6384 2.836 78.049 2.836C77.4143 2.836 76.9043 3.02867 76.519 3.414C76.1337 3.77667 75.839 4.264 75.635 4.876C75.431 5.488 75.295 6.134 75.227 6.814C75.159 7.494 75.125 8.14 75.125 8.752C75.125 9.79467 75.227 11.0527 75.431 12.526C75.6577 13.9767 75.9297 15.5407 76.247 17.218C76.5643 18.8727 76.8817 20.5273 77.199 22.182C77.539 23.8367 77.811 25.378 78.015 26.806C78.2417 28.234 78.355 29.4467 78.355 30.444C78.355 30.8293 78.3097 31.26 78.219 31.736C78.151 32.1893 77.981 32.6313 77.709 33.062C77.4597 33.4927 77.0744 33.844 76.553 34.116C76.0543 34.388 75.363 34.524 74.479 34.524C73.2324 34.524 72.1557 34.1953 71.249 33.538C70.365 32.858 69.617 31.9627 69.005 30.852C68.393 29.7413 67.8943 28.5287 67.509 27.214C67.1237 25.8767 66.8177 24.5507 66.591 23.236C66.3643 21.9213 66.183 20.72 66.047 19.632C65.9337 18.5213 65.8203 17.6487 65.707 17.014C65.5257 15.7447 65.367 14.6227 65.231 13.648C65.095 12.6733 64.9703 11.7213 64.857 10.792C64.7663 9.86267 64.653 8.84267 64.517 7.732C64.3357 6.372 64.143 5.26133 63.939 4.4C63.735 3.53867 63.327 2.85867 62.715 2.36C62.579 3.312 62.4657 4.10533 62.375 4.74C62.2843 5.352 62.205 5.896 62.137 6.372C62.069 6.848 62.001 7.324 61.933 7.8C61.865 8.276 61.7857 8.84266 61.695 9.5C61.6043 10.1347 61.491 10.9393 61.355 11.914C61.219 12.934 61.083 14.1353 60.947 15.518C60.811 16.9007 60.7317 18.374 60.709 19.938C60.6863 21.502 60.7543 23.066 60.913 24.63C61.0943 26.194 61.4117 27.6673 61.865 29.05C62.3183 30.41 62.9417 31.6 63.735 32.62C64.551 33.64 65.5823 34.3767 66.829 34.83V35ZM92.4191 35V1H97.3491V35H92.4191Z" fill="#373737"/>
</svg>
